<?xml version="1.0" encoding="UTF-8"?>
<svg version="1.1" xmlns="http://www.w3.org/2000/svg" width="696" height="696">
<path d="M0 0 C2.14790979 1.59984885 4.06485005 3.18414568 6.03010559 4.98384094 C6.91243576 5.77214327 6.91243576 5.77214327 7.81259078 6.57637089 C9.78277279 8.34313783 11.73889982 10.12467288 13.69458008 11.9074707 C15.1039528 13.18041261 16.51354495 14.4531116 17.92333984 15.72558594 C30.92145319 27.50039961 43.6668458 39.54722519 56.34531116 51.66456318 C64.84613891 59.78023324 73.40573611 67.79999405 82.1784668 75.62182617 C145.30663781 132.0318898 145.30663781 132.0318898 147.63043582 169.49768341 C148.47121296 188.75066007 146.39309409 208.0669634 143 227 C138.125 224.375 138.125 224.375 137 221 C136.34 220.67 135.68 220.34 135 220 C133 219 133 219 132 216 C131.34 215.67 130.68 215.34 130 215 C128 214 128 214 127 211 C126.34 210.67 125.68 210.34 125 210 C123 209 123 209 122 206 C121.34 205.67 120.68 205.34 120 205 C118 204 118 204 117 201 C116.34 200.67 115.68 200.34 115 200 C113 199 113 199 112 196 C111.34 195.67 110.68 195.34 110 195 C108 194 108 194 107 191 C106.4225 190.71125 105.845 190.4225 105.25 190.125 C102.21233863 188.60616932 100.3375365 186.45156267 98 184 C97.175 183.175 96.35 182.35 95.5 181.5 C76.33333333 162.33333333 57.16666667 143.16666667 38 124 C37.113125 123.154375 36.22625 122.30875 35.3125 121.4375 C33 119 33 119 31.9375 116.8125 C30.72171843 114.46198896 29.33020244 114.12751731 27 113 C26.67 112.01 26.34 111.02 26 110 C25.34 109.67 24.68 109.34 24 109 C22 108 22 108 21 105 C20.34 104.67 19.68 104.34 19 104 C17 103 17 103 16 100 C15.34 99.67 14.68 99.34 14 99 C12 98 12 98 11 95 C10.34 94.67 9.68 94.34 9 94 C7 93 7 93 6 90 C5.34 89.67 4.68 89.34 4 89 C2 88 2 88 1 85 C0.4225 84.71125 -0.155 84.4225 -0.75 84.125 C-3.78766137 82.60616932 -5.6624635 80.45156267 -8 78 C-8.886875 77.13375 -9.77375 76.2675 -10.6875 75.375 C-13 73 -13 73 -15 70 C-22.19527405 70.32705791 -27.74767379 73.64547737 -34 77 C-34.89976562 77.46664062 -35.79953125 77.93328125 -36.7265625 78.4140625 C-49.33891727 85.07368345 -61.0847616 93.15671553 -72.38671875 101.83203125 C-73.10472656 102.38246094 -73.82273438 102.93289062 -74.5625 103.5 C-75.18253906 103.9846875 -75.80257812 104.469375 -76.44140625 104.96875 C-78 106 -78 106 -80 106 C-80.33 106.99 -80.66 107.98 -81 109 C-81.9590625 109.2165625 -81.9590625 109.2165625 -82.9375 109.4375 C-83.618125 109.623125 -84.29875 109.80875 -85 110 C-85.28359375 110.59039062 -85.5671875 111.18078125 -85.859375 111.7890625 C-87.27046314 114.5242539 -88.97183061 115.94161006 -91.3125 117.9375 C-95.66836079 121.75999008 -99.83789115 125.71635122 -103.9375 129.8125 C-104.49284424 130.36349365 -105.04818848 130.9144873 -105.62036133 131.48217773 C-107.84166744 133.71096642 -109.88675985 135.84590261 -111.75390625 138.38671875 C-112.16511719 138.91910156 -112.57632813 139.45148438 -113 140 C-113.66 140 -114.32 140 -115 140 C-115.66 141.65 -116.32 143.3 -117 145 C-117.66 145 -118.32 145 -119 145 C-119.24878906 145.721875 -119.49757813 146.44375 -119.75390625 147.1875 C-121.1191601 150.2689507 -122.77496741 152.42267997 -124.9375 155 C-127.07073751 157.55191029 -128.95993363 159.93082066 -130.62890625 162.8125 C-131.08136719 163.534375 -131.53382813 164.25625 -132 165 C-132.66 165 -133.32 165 -134 165 C-134.22429687 165.64195312 -134.44859375 166.28390625 -134.6796875 166.9453125 C-136.48867641 171.13060638 -138.80654528 174.9544472 -141.125 178.875 C-150.49828888 194.6581981 -150.49828888 194.6581981 -158.01171875 211.3671875 C-159.00374836 214.00998574 -160.07597411 216.61363846 -161.15600586 219.22143555 C-164.62413441 227.66910763 -167.50339275 236.21814426 -170 245 C-170.31517578 246.09876465 -170.31517578 246.09876465 -170.63671875 247.21972656 C-177.23639599 270.64858076 -180.22407952 294.94534444 -180.25 319.25 C-180.25133942 319.99644775 -180.25267883 320.74289551 -180.25405884 321.51196289 C-180.24934762 333.68575971 -179.44149023 345.50363713 -177.41455078 357.52587891 C-177.01451139 359.91339318 -176.65574646 362.3035113 -176.30859375 364.69921875 C-173.8316629 381.30933087 -169.63797378 397.39065151 -163.71435547 413.09960938 C-163.04568017 414.87847764 -162.39896715 416.66555811 -161.75390625 418.453125 C-158.73950434 426.63648495 -154.99070206 434.2595803 -151 442 C-150.35188919 443.33222778 -149.70563092 444.66536106 -149.0625 446 C-141.70117598 460.5989283 -132.81194595 474.53382528 -122.33984375 487.10546875 C-121 489 -121 489 -120.00390625 491.67578125 C-119.67261719 492.44277344 -119.34132813 493.20976563 -119 494 C-118.01 494.33 -117.02 494.66 -116 495 C-114.73330362 496.45105125 -113.53660763 497.96353094 -112.375 499.5 C-102.67977895 511.63486818 -91.28775214 522.52253817 -79 532 C-77.31169944 533.37401691 -75.62419468 534.74901224 -73.9375 536.125 C-66.39990261 542.11974542 -58.42977613 547.42088206 -50.375 552.6875 C-49.31817017 553.3832312 -49.31817017 553.3832312 -48.23999023 554.09301758 C-43.63612742 557.07824671 -38.96131577 559.65995628 -34 562 C-33.0730835 562.43807983 -33.0730835 562.43807983 -32.12744141 562.88500977 C-30.29637506 563.7426686 -28.46142237 564.59137677 -26.625 565.4375 C-22.33066215 567.42284868 -18.07686128 569.44854571 -13.875 571.625 C-4.04463285 576.58080492 6.43315897 579.99863216 17 583 C17.78568359 583.2283252 18.57136719 583.45665039 19.38085938 583.69189453 C41.23255772 589.98265915 63.24361359 593.32031668 85.97729492 594.05371094 C94.28825286 594.45243393 94.28825286 594.45243393 98.1328125 597.41015625 C98.74898438 598.26480469 99.36515625 599.11945312 100 600 C100.825 600.825 101.65 601.65 102.5 602.5 C147 647 147 647 147 650 C144.23001185 650.48451938 141.45915318 650.96267495 138.6875 651.4375 C137.92115234 651.57220703 137.15480469 651.70691406 136.36523438 651.84570312 C123.10690044 654.10127031 109.91730764 654.27928985 96.5 654.3125 C95.48910309 654.31511841 94.47820618 654.31773682 93.43667603 654.32043457 C79.76494613 654.32420604 66.26922629 653.85121123 52.6875 652.25 C52.00349121 652.17149811 51.31948242 652.09299622 50.61474609 652.01211548 C41.55206325 650.94108366 32.76756887 649.14641388 23.92407227 646.95458984 C18.96322315 645.72646842 13.96279304 644.71999386 8.953125 643.7109375 C6 643 6 643 3.671875 642.0390625 C1.33671979 641.13094659 -0.71841592 640.60903338 -3.16015625 640.1171875 C-8.47240089 638.98944841 -13.39371328 637.11004554 -18.4375 635.125 C-19.31470703 634.78597656 -20.19191406 634.44695313 -21.09570312 634.09765625 C-23.73440575 633.074843 -26.36797634 632.03986952 -29 631 C-29.84328857 630.66782471 -30.68657715 630.33564941 -31.55541992 629.9934082 C-47.79950789 623.55159679 -63.04694867 616.04689235 -78 607 C-79.31677734 606.22269531 -79.31677734 606.22269531 -80.66015625 605.4296875 C-84.54339837 603.05695525 -88.28857705 600.47912158 -92.0625 597.9375 C-93.95948533 596.68629691 -95.89668306 595.49317914 -97.875 594.375 C-98.57625 593.92125 -99.2775 593.4675 -100 593 C-100 592.34 -100 591.68 -100 591 C-100.7321875 590.74089844 -101.464375 590.48179687 -102.21875 590.21484375 C-105.09469742 588.95863638 -107.08342193 587.55286653 -109.5 585.5625 C-110.79550781 584.49902344 -110.79550781 584.49902344 -112.1171875 583.4140625 C-113.54417969 582.21910156 -113.54417969 582.21910156 -115 581 C-115.79132324 580.33822754 -115.79132324 580.33822754 -116.59863281 579.66308594 C-120.41810098 576.46408464 -124.21105283 573.23506485 -128 570 C-128.69738281 569.41734375 -129.39476562 568.8346875 -130.11328125 568.234375 C-139.03258603 560.67111014 -147.54845561 552.17835405 -155.09765625 543.24609375 C-156.72887722 541.32011416 -158.38587422 539.42494241 -160.05859375 537.53515625 C-177 518.33132786 -177 518.33132786 -177 514 C-177.66 514 -178.32 514 -179 514 C-180.72676857 511.63884513 -182.31404904 509.28139275 -183.875 506.8125 C-184.35751221 506.05654541 -184.84002441 505.30059082 -185.3371582 504.52172852 C-194.40889471 490.15486361 -202.68571462 475.33532561 -210 460 C-210.54269531 458.87207031 -211.08539063 457.74414062 -211.64453125 456.58203125 C-216.18566898 446.95941789 -220.22856655 437.16831575 -223.1328125 426.921875 C-223.81081399 424.63743756 -224.53565184 422.39458284 -225.3046875 420.140625 C-243.68628499 365.64122814 -246.98809551 300.72337585 -232 245 C-231.18250931 241.32910816 -230.45351254 237.63979165 -229.7109375 233.953125 C-229.03566209 231.14813485 -228.08785401 228.66502387 -227 226 C-226.65397444 224.54925582 -226.34022932 223.09035279 -226.0625 221.625 C-225.18622697 217.47639487 -223.73200739 213.87969656 -222 210 C-221.52626531 208.63022999 -221.06900993 207.25469186 -220.625 205.875 C-217.45287978 196.21298077 -213.58643557 186.90113755 -209.4375 177.625 C-209.06157715 176.78090576 -208.6856543 175.93681152 -208.29833984 175.06713867 C-206.10102393 170.20715325 -203.71121818 165.59258761 -201 161 C-200.24726177 159.62649712 -199.49687396 158.25170051 -198.75 156.875 C-187.08900089 135.87093739 -173.10483485 116.44771001 -157.25439453 98.43359375 C-156.21745488 97.24851986 -155.19810846 96.04807714 -154.18359375 94.84375 C-146.64909228 85.93075577 -138.16003324 77.43606035 -129.24609375 69.90234375 C-127.32011416 68.27112278 -125.42494241 66.61412578 -123.53515625 64.94140625 C-116.61557886 58.83641313 -109.70338262 53.1039361 -102 48 C-99.76812333 46.46206818 -97.53919756 44.92037102 -95.3125 43.375 C-94.75046875 42.98755615 -94.1884375 42.6001123 -93.609375 42.20092773 C-90.82883666 40.28270302 -88.08265656 38.33187935 -85.375 36.3125 C-81.79035531 33.73576274 -77.93324997 31.71624055 -74.0390625 29.6484375 C-70.90971258 27.95102662 -67.87029353 26.1352723 -64.8125 24.3125 C-48.46377027 14.78355289 -30.30027849 6.7794608 -12.08203125 1.62890625 C-9.84019995 0.9988935 -9.84019995 0.9988935 -7.1875 -0.25 C-4.2712081 -1.24987151 -2.95208595 -0.92475067 0 0 Z " fill="#FEBF5E" transform="translate(255,33)"/>
<path d="M0 0 C0.89813919 -0.00979385 1.79627838 -0.01958771 2.72163391 -0.02967834 C41.06306307 -0.36013877 78.32153267 3.01031286 114.84960938 15.58300781 C116.57994223 16.17477812 118.32072795 16.73576679 120.0625 17.29296875 C142.75894914 24.55823422 164.4760296 34.79759054 184.765625 47.23828125 C185.5169873 47.69831543 186.26834961 48.15834961 187.04248047 48.63232422 C191.07299153 51.10974618 195.09420631 53.60163783 199.07666016 56.15576172 C200.2268572 56.8929652 201.38308455 57.62082482 202.54443359 58.34033203 C203.98624787 59.25363561 205.381394 60.2398543 206.765625 61.23828125 C206.765625 61.89828125 206.765625 62.55828125 206.765625 63.23828125 C207.4978125 63.49738281 208.23 63.75648437 208.984375 64.0234375 C211.86032242 65.27964487 213.84904693 66.68541472 216.265625 68.67578125 C217.56113281 69.73925781 217.56113281 69.73925781 218.8828125 70.82421875 C219.83414062 71.62085937 220.78546875 72.4175 221.765625 73.23828125 C222.29317383 73.67946289 222.82072266 74.12064453 223.36425781 74.57519531 C226.17041382 76.92549549 228.96617209 79.28735405 231.75 81.6640625 C233.44078146 83.10735911 235.1354474 84.54623487 236.84375 85.96875 C246.90629032 94.47815909 256.29675562 104.15279472 264.765625 114.23828125 C265.70807424 115.31907167 266.65225968 116.39834924 267.59765625 117.4765625 C283.765625 135.98771513 283.765625 135.98771513 283.765625 140.23828125 C284.425625 140.23828125 285.085625 140.23828125 285.765625 140.23828125 C287.27631752 142.33512246 288.65843675 144.41971241 290.015625 146.61328125 C290.42184082 147.25885986 290.82805664 147.90443848 291.24658203 148.56958008 C292.42812875 150.45400404 293.59893257 152.34463357 294.765625 154.23828125 C295.27351563 155.05941406 295.78140625 155.88054687 296.3046875 156.7265625 C297.81692914 159.21601293 299.28893202 161.72756526 300.765625 164.23828125 C301.57400635 165.57044141 302.38262192 166.90245946 303.19140625 168.234375 C314.25063528 186.65644934 324.02143692 206.58181995 329.8984375 227.31640625 C330.57643899 229.60084369 331.30127684 231.84369841 332.0703125 234.09765625 C347.3702395 279.45517418 350.46163478 329.11588894 345.015625 376.48828125 C344.93739502 377.17623779 344.85916504 377.86419434 344.77856445 378.57299805 C343.70793439 387.65409763 341.91740028 396.45553262 339.72021484 405.31640625 C338.49155449 410.2764131 337.48548226 415.27616638 336.4765625 420.28515625 C335.765625 423.23828125 335.765625 423.23828125 334.8046875 425.56640625 C333.89657159 427.90156146 333.37465838 429.95669717 332.8828125 432.3984375 C331.75507341 437.71068214 329.87567054 442.63199453 327.890625 447.67578125 C327.55160156 448.55298828 327.21257812 449.43019531 326.86328125 450.33398438 C325.84046843 452.97268588 324.80537058 455.60621006 323.765625 458.23828125 C323.26627441 459.5075647 323.26627441 459.5075647 322.75683594 460.80249023 C320.54072735 466.39637724 318.20746059 471.92688195 315.765625 477.42578125 C315.435625 478.18052734 315.105625 478.93527344 314.765625 479.71289062 C312.68539956 484.40558669 310.37019622 488.81532355 307.765625 493.23828125 C306.95061817 494.73692067 306.13773559 496.23671975 305.328125 497.73828125 C303.80215638 500.5017732 302.21573515 503.08436766 300.328125 505.61328125 C298.20220296 508.483276 296.50882838 511.46196241 294.828125 514.61328125 C289.32197786 524.89995923 289.32197786 524.89995923 285.765625 529.23828125 C285.105625 529.23828125 284.445625 529.23828125 283.765625 529.23828125 C283.37697266 530.3365625 283.37697266 530.3365625 282.98046875 531.45703125 C281.72426138 534.33297867 280.31849153 536.32170318 278.328125 538.73828125 C277.61914062 539.60195313 276.91015625 540.465625 276.1796875 541.35546875 C275.38304687 542.30679688 274.58640625 543.258125 273.765625 544.23828125 C273.32444336 544.76583008 272.88326172 545.29337891 272.42871094 545.83691406 C269.22970964 549.65638223 266.00068985 553.44933408 262.765625 557.23828125 C261.89164063 558.28435547 261.89164063 558.28435547 261 559.3515625 C253.43114134 568.277464 244.93206863 576.81059149 235.984375 584.35546875 C234.14358045 585.91755145 232.34238121 587.50781495 230.546875 589.12109375 C221.43266201 597.25475666 211.8722598 604.38949053 201.765625 611.23828125 C200.62354256 612.02190905 199.48160438 612.80574714 198.33984375 613.58984375 C193.32767014 616.99073411 188.28647042 620.17540341 182.94921875 623.0390625 C180.6488206 624.30242964 178.43290816 625.66690585 176.203125 627.05078125 C166.53338838 632.89795011 156.18213015 637.87006941 145.765625 642.23828125 C144.89260742 642.62209961 144.89260742 642.62209961 144.00195312 643.01367188 C141.99214969 643.89607319 139.97376164 644.75601222 137.953125 645.61328125 C137.30593506 645.90090332 136.65874512 646.18852539 135.99194336 646.48486328 C131.33281653 648.41952876 131.33281653 648.41952876 128.97272873 647.66535664 C125.7231994 645.56426675 122.94086678 642.98772786 120.09649658 640.38163757 C119.09294148 639.47060539 119.09294148 639.47060539 118.06911254 638.54116851 C115.82391376 636.49863625 113.58588557 634.44844777 111.34863281 632.3972168 C110.56360445 631.67991268 109.77857609 630.96260857 108.96975899 630.22356796 C93.83538872 616.38773455 78.93734732 602.30567928 64.1350453 588.11568938 C61.69913103 585.78069983 59.26148686 583.44752383 56.82275391 581.11547852 C56.3375457 580.6514357 55.8523375 580.18739288 55.35242602 579.70928816 C48.06653921 572.74948218 40.66649095 565.93395944 33.18701172 559.18188477 C-38.87145301 494.00422886 -38.87145301 494.00422886 -41.52009058 455.8342315 C-42.46579374 436.51767801 -40.14229973 417.13383008 -36.234375 398.23828125 C-31.22208453 402.43901435 -26.51319964 406.818371 -21.90077209 411.45162964 C-21.19650367 412.15504364 -20.49223524 412.85845764 -19.76662534 413.58318722 C-17.42284854 415.92532554 -15.08264826 418.27100406 -12.74243164 420.61669922 C-11.05690637 422.30250674 -9.37116051 423.98809374 -7.68521118 425.67347717 C-3.59284228 429.76558928 0.49723027 433.85998596 4.58628427 437.95541029 C9.34719205 442.72348573 14.11094326 447.4887161 18.87486536 452.25377955 C27.36946381 460.75056301 35.86182978 469.24957413 44.3527832 477.75 C52.59770062 486.00410578 60.84367463 494.25715365 69.09106445 502.50878906 C69.60000163 503.01798897 70.10893881 503.52718887 70.63329833 504.05181907 C73.18666284 506.60648868 75.74004805 509.16113759 78.29344356 511.71577621 C99.45404859 532.88673671 120.61098954 554.06135567 141.765625 575.23828125 C145.39339379 574.05990606 148.64506522 572.9114988 151.90234375 570.91796875 C152.6392041 570.46897217 153.37606445 570.01997559 154.13525391 569.55737305 C154.90015137 569.08082275 155.66504883 568.60427246 156.453125 568.11328125 C157.64687744 567.37621948 157.64687744 567.37621948 158.86474609 566.62426758 C165.90571931 562.23456032 172.56035061 557.47364062 179.13671875 552.4140625 C179.85988281 551.86105469 180.58304688 551.30804687 181.328125 550.73828125 C181.94816406 550.25359375 182.56820312 549.76890625 183.20703125 549.26953125 C184.765625 548.23828125 184.765625 548.23828125 186.765625 548.23828125 C187.425625 546.91828125 188.085625 545.59828125 188.765625 544.23828125 C189.755625 544.23828125 190.745625 544.23828125 191.765625 544.23828125 C192.00539063 543.66078125 192.24515625 543.08328125 192.4921875 542.48828125 C194.02280683 539.78387409 195.77842308 538.25647318 198.140625 536.23828125 C202.27513773 532.60856368 206.25029826 528.87500027 210.140625 524.98828125 C210.63997559 524.49328125 211.13932617 523.99828125 211.65380859 523.48828125 C213.92537163 521.20829083 216.01315365 518.92040235 217.9921875 516.37890625 C218.87003906 515.31929687 218.87003906 515.31929687 219.765625 514.23828125 C220.425625 514.23828125 221.085625 514.23828125 221.765625 514.23828125 C221.86875 513.59890625 221.971875 512.95953125 222.078125 512.30078125 C222.305 511.62015625 222.531875 510.93953125 222.765625 510.23828125 C223.755625 509.90828125 224.745625 509.57828125 225.765625 509.23828125 C226.45989933 507.58292468 227.12203655 505.91399487 227.765625 504.23828125 C229.00158147 502.55021083 230.29751588 500.90490969 231.640625 499.30078125 C234.6075931 495.74154765 237.2386891 492.12332689 239.765625 488.23828125 C240.65097548 486.89709172 241.5363967 485.55594889 242.421875 484.21484375 C243.37028408 482.76464483 244.3181923 481.31411824 245.265625 479.86328125 C245.73871094 479.1465625 246.21179688 478.42984375 246.69921875 477.69140625 C249.37209992 473.58953321 251.7458238 469.46786974 253.87646484 465.06005859 C255.09517533 462.56307406 256.46206221 460.1571231 257.828125 457.73828125 C259.86850806 454.01968312 261.59710596 450.40300167 262.98828125 446.40234375 C263.98800103 443.61920426 265.12490117 440.90404061 266.265625 438.17578125 C266.91144531 436.63083984 266.91144531 436.63083984 267.5703125 435.0546875 C268.48603961 432.8970429 269.43182847 430.75213505 270.390625 428.61328125 C272.17642969 424.22994247 273.48177903 419.7911271 274.765625 415.23828125 C274.95946777 414.55169434 275.15331055 413.86510742 275.35302734 413.15771484 C276.84621755 407.85728642 278.3277153 402.55398717 279.765625 397.23828125 C280.10335938 396.00980469 280.44109375 394.78132813 280.7890625 393.515625 C282.21576199 387.72881185 282.97519942 381.81842679 283.828125 375.92578125 C284.00150391 374.76626953 284.17488281 373.60675781 284.35351562 372.41210938 C286.18903599 359.9010338 287.00215174 347.62165277 287.015625 334.98828125 C287.01696442 334.2418335 287.01830383 333.49538574 287.01968384 332.72631836 C287.01497262 320.55252154 286.20711523 308.73464412 284.18017578 296.71240234 C283.78013639 294.32488807 283.42137146 291.93476995 283.07421875 289.5390625 C280.59674195 272.92528922 276.4013075 256.84190657 270.47558594 241.12988281 C269.8181017 239.37809881 269.18529659 237.61710575 268.5546875 235.85546875 C265.53599433 227.60977666 261.71939207 219.88517683 257.70605469 212.09277344 C256.87791373 210.45971044 256.08817105 208.80729563 255.3046875 207.15234375 C247.94974071 191.63468144 237.57599278 177.384156 226.953125 163.9453125 C225.765625 162.23828125 225.765625 162.23828125 225.765625 160.23828125 C224.445625 159.57828125 223.125625 158.91828125 221.765625 158.23828125 C221.765625 157.24828125 221.765625 156.25828125 221.765625 155.23828125 C221.188125 154.99851563 220.610625 154.75875 220.015625 154.51171875 C217.31121784 152.98109942 215.78381693 151.22548317 213.765625 148.86328125 C210.13590743 144.72876852 206.40234402 140.75360799 202.515625 136.86328125 C202.020625 136.36393066 201.525625 135.86458008 201.015625 135.35009766 C198.73563458 133.07853462 196.4477461 130.9907526 193.90625 129.01171875 C193.19984375 128.42648438 192.4934375 127.84125 191.765625 127.23828125 C191.765625 126.57828125 191.765625 125.91828125 191.765625 125.23828125 C190.115625 124.57828125 188.465625 123.91828125 186.765625 123.23828125 C186.765625 122.57828125 186.765625 121.91828125 186.765625 121.23828125 C186.02828125 120.97917969 185.2909375 120.72007812 184.53125 120.453125 C181.68041229 119.20085024 179.86137205 117.83010558 177.515625 115.80078125 C171.0123099 110.44970516 163.94313857 106.01871525 156.82763672 101.53759766 C155.46074901 100.67629332 154.09771962 99.80883306 152.73876953 98.93505859 C148.24886812 96.07049055 143.67704226 93.56958391 138.890625 91.23828125 C137.48037874 90.54445374 136.07022221 89.85044384 134.66015625 89.15625 C133.65202881 88.6619751 133.65202881 88.6619751 132.62353516 88.15771484 C130.25839105 86.98726376 127.92048819 85.76604988 125.578125 84.55078125 C103.4755086 73.57241898 77.92933985 66.27129286 53.47436523 63.31347656 C48.4069804 62.66369052 44.37315247 61.46515034 39.765625 59.23828125 C39.765625 58.57828125 39.765625 57.91828125 39.765625 57.23828125 C39.105625 57.23828125 38.445625 57.23828125 37.765625 57.23828125 C36.05445391 55.61734045 34.39487068 53.94154695 32.765625 52.23828125 C31.10869506 50.59515306 29.4506855 48.95311305 27.79174805 47.31201172 C23.04800774 42.6170226 18.3116879 37.91462501 13.57969952 33.20779228 C10.72330536 30.36713089 7.86413607 27.52937676 4.9987793 24.69775391 C2.2178631 21.94935422 -0.55572976 19.19375923 -3.32433128 16.4329567 C-4.37951077 15.38332451 -5.43732924 14.33633844 -6.49779701 13.29204941 C-7.97470835 11.83681645 -9.44206272 10.37256486 -10.9074707 8.90576172 C-11.74510452 8.07478973 -12.58273834 7.24381775 -13.445755 6.38766479 C-15.234375 4.23828125 -15.234375 4.23828125 -15.234375 1.23828125 C-10.12295699 0.21486452 -5.18997259 0.04652314 0 0 Z " fill="#FEBF5E" transform="translate(337.234375,17.76171875)"/>
<path d="M0 0 C3.16211368 1.8425066 5.56747713 3.34707013 7.8125 6.25 C10.62617559 9.68732533 13.74117051 12.4996091 17.1171875 15.375 C19.53866683 17.46490747 21.76929011 19.70900065 24 22 C24.825 22.825 25.65 23.65 26.5 24.5 C67.33333333 65.33333333 108.16666667 106.16666667 149 147 C149.87664055 147.87591545 150.7532811 148.7518309 151.65648651 149.65428925 C153.25304259 151.25234225 154.84389675 152.85610748 156.4296875 154.46484375 C161.87917996 159.98868712 161.87917996 159.98868712 167.6875 165.125 C170.94778565 167.83295491 173.63122115 170.89569716 176.375 174.1171875 C178.46490747 176.53866683 180.70900065 178.76929011 183 181 C233 231 233 231 235.5 233.5625 C237.90572047 236.00298993 237.90572047 236.00298993 240.4375 237.875 C243.15974219 240.13246913 245.27056294 242.56254864 247.52734375 245.26953125 C249.55422995 247.65125694 251.76100129 249.81841151 254 252 C259 257 264 262 269 267 C269.33 179.55 269.66 92.1 270 2 C276.75196454 4.25065485 276.75196454 4.25065485 279.54296875 5.875 C280.14173828 6.22046875 280.74050781 6.5659375 281.35742188 6.921875 C281.96134766 7.27765625 282.56527344 7.6334375 283.1875 8 C284.11079102 8.53367188 284.11079102 8.53367188 285.05273438 9.078125 C287.7574968 10.64882127 290.39679546 12.26453031 293 14 C293 14.66 293 15.32 293 16 C293.57975586 16.11029541 294.15951172 16.22059082 294.75683594 16.33422852 C297.25815468 17.07662035 298.80475226 18.0951854 300.890625 19.65234375 C301.95410156 20.44608398 301.95410156 20.44608398 303.0390625 21.25585938 C304.13347656 22.08827148 304.13347656 22.08827148 305.25 22.9375 C305.99507813 23.48857422 306.74015625 24.03964844 307.5078125 24.60742188 C308.21164062 25.13787109 308.91546875 25.66832031 309.640625 26.21484375 C310.28547852 26.70073975 310.93033203 27.18663574 311.59472656 27.68725586 C312.29033691 28.33706421 312.29033691 28.33706421 313 29 C313 29.66 313 30.32 313 31 C313.639375 31.268125 314.27875 31.53625 314.9375 31.8125 C317 33 317 33 318 36 C319.85994063 37.06730964 319.85994063 37.06730964 322 38 C325.0258984 39.93245017 327.1078523 41.93197937 329 45 C330.02529115 49.8946393 329.91619955 54.75959433 329.84178162 59.73655701 C329.84483579 61.25228429 329.85096789 62.76800796 329.85990578 64.28371197 C329.87554029 68.44134788 329.84758606 72.59771884 329.81245935 76.75519359 C329.78221169 81.24113745 329.79246099 85.72701079 329.79777527 90.21302795 C329.80144461 97.98279643 329.77949448 105.75215323 329.7401104 113.52181816 C329.68320518 124.75535654 329.66498869 135.98869599 329.65619446 147.22236288 C329.6408765 165.44840358 329.59429862 183.6742249 329.52807617 201.90014648 C329.46381667 219.60423689 329.41427081 237.30826769 329.38452148 255.01245117 C329.38268242 256.10385249 329.38084336 257.19525381 329.37894856 258.31972789 C329.36981326 263.79500315 329.36096731 269.27027884 329.35226524 274.7455548 C329.2797058 320.16385516 329.15642037 365.58191625 329 411 C325.83788632 409.1574934 323.43252287 407.65292987 321.1875 404.75 C318.35964511 401.27577827 315.20626148 398.4950069 311.734375 395.67578125 C309.89747077 393.9009346 309.0849414 392.28560989 308 390 C306.67592331 389.31513275 305.34090759 388.65129797 304 388 C302.29006566 386.3777546 300.62652316 384.70586575 299 383 C298.175 382.175 297.35 381.35 296.5 380.5 C269 353 241.5 325.5 214 298 C213.113125 297.154375 212.22625 296.30875 211.3125 295.4375 C209 293 209 293 207.9375 290.8125 C206.72171843 288.46198896 205.33020244 288.12751731 203 287 C202.67 286.01 202.34 285.02 202 284 C201.13375 283.566875 201.13375 283.566875 200.25 283.125 C197.21233863 281.60616932 195.3375365 279.45156267 193 277 C191.7625 275.7625 191.7625 275.7625 190.5 274.5 C163 247 135.5 219.5 108 192 C107.113125 191.154375 106.22625 190.30875 105.3125 189.4375 C103 187 103 187 101.9375 184.8125 C100.70242811 182.42469435 99.39624623 182.16389103 97 181 C95.29006566 179.3777546 93.62652316 177.70586575 92 176 C91.175 175.175 90.35 174.35 89.5 173.5 C82 166 74.5 158.5 67 151 C66.113125 150.13375 65.22625 149.2675 64.3125 148.375 C62 146 62 146 60 143 C59.67 230.78 59.34 318.56 59 409 C54.08288964 407.77072241 50.35505825 405.53091484 46 403 C45.07316406 402.4740625 44.14632812 401.948125 43.19140625 401.40625 C42.28261719 400.8803125 41.37382812 400.354375 40.4375 399.8125 C39.59058594 399.32394531 38.74367187 398.83539062 37.87109375 398.33203125 C37.25363281 397.89246094 36.63617188 397.45289063 36 397 C36 396.34 36 395.68 36 395 C35.4225 394.89558594 34.845 394.79117187 34.25 394.68359375 C31.63066044 393.88778746 30.1302813 392.77721506 28 391.0625 C27.22140625 390.43730469 26.4428125 389.81210937 25.640625 389.16796875 C24.76921875 388.45253906 23.8978125 387.73710938 23 387 C21.47632813 385.75669922 21.47632813 385.75669922 19.921875 384.48828125 C15.07562955 380.50245223 10.39346646 376.4889766 6 372 C4.4594951 370.88767282 4.4594951 370.88767282 2.88786888 369.75287437 C-1.13639837 365.67504654 -0.7237088 361.11613344 -0.77448785 355.64615214 C-0.75737153 354.22532736 -0.73969799 352.8045092 -0.7215271 351.38369751 C-0.72414422 349.86883565 -0.72939893 348.35397645 -0.7370621 346.83913171 C-0.75047718 342.67936342 -0.72648178 338.52052219 -0.69639373 334.36087203 C-0.67048807 329.87422843 -0.67925082 325.38763729 -0.68380737 320.90093994 C-0.68695383 313.12847121 -0.66812554 305.35630463 -0.63438034 297.5839119 C-0.5856224 286.34638372 -0.56999211 275.10900168 -0.56245239 263.87137918 C-0.54931992 245.63926761 -0.50938837 227.40731709 -0.45263672 209.17529297 C-0.39756442 191.46436367 -0.35509296 173.75347811 -0.32958984 156.04248047 C-0.3280135 154.95081643 -0.32643716 153.85915239 -0.32481305 152.73440762 C-0.31698284 147.25786162 -0.30940059 141.78131531 -0.30194163 136.3047688 C-0.23973911 90.86973431 -0.13405822 45.43487547 0 0 Z " fill="#FEBE5C" transform="translate(185,147)"/>
<path d="M0 0 C0.66 0.33 1.32 0.66 2 1 C-4.70593195 8.60433431 -11.74294724 15.87570976 -18.88812256 23.06536865 C-19.87573205 24.05978896 -20.86162838 25.05591376 -21.84576416 26.05377197 C-23.25385144 27.47990633 -24.66978879 28.89827656 -26.0859375 30.31640625 C-26.9114209 31.14599854 -27.7369043 31.97559082 -28.58740234 32.83032227 C-30.9323108 34.9391263 -33.24397616 36.48268338 -36 38 C-34.4302115 34.14688277 -31.93320603 31.89992143 -29 29 C-27.19839492 27.04958978 -25.40701744 25.09300547 -23.625 23.125 C-17.63602345 16.56125793 -11.54912675 10.3580525 -4.796875 4.578125 C-3.12659942 3.11118731 -1.55211328 1.59043707 0 0 Z " fill="#FEDAA2" transform="translate(131,98)"/>
</svg>
